<svg xmlns="http://www.w3.org/2000/svg" viewBox="0 0 96 96" role="img" aria-label="Kanban icon-only logo">
  <ellipse cx="48" cy="78" rx="25" ry="8.5" fill="#d4e3d3" />
  <circle cx="48" cy="40" r="18" fill="#efc3d3" />
  <circle cx="31" cy="45" r="14" fill="#f5d4df" />
  <circle cx="65" cy="45" r="14" fill="#f5d4df" />
  <circle cx="38" cy="29" r="12" fill="#f9dfe8" />
  <circle cx="58" cy="29" r="12" fill="#f9dfe8" />
  <circle cx="48" cy="53" r="15" fill="#f3d0dc" />

  <path d="M41.5 78 C41.3 68.5, 42.6 61.2, 45.4 55.4 C41.8 53, 39.7 48.1, 39.9 42.6 C43.5 44.7, 46.4 47.2, 48.7 50.4 C50.8 46.7, 53.8 44.1, 57.8 42.4 C57.6 47.8, 55.6 52.6, 52.2 55.9 C54.5 61.7, 55.5 69.1, 55.3 78 Z" fill="#d8b392" />
  <path d="M48.6 51 C51.3 56.2, 52.4 63.8, 51.9 78 L55.3 78 C55.5 69.1, 54.5 61.7, 52.2 55.9 Z" fill="#b78668" />

  <circle cx="25" cy="43" r="2.4" fill="#cb8ca3" />
  <circle cx="35" cy="26" r="2.1" fill="#cb8ca3" />
  <circle cx="48" cy="23.5" r="2.2" fill="#cb8ca3" />
  <circle cx="62" cy="27" r="2.25" fill="#cb8ca3" />
  <circle cx="71" cy="40" r="2.1" fill="#cb8ca3" />
  <circle cx="58" cy="53" r="2" fill="#cb8ca3" />
</svg>
