<svg xmlns="http://www.w3.org/2000/svg" viewBox="0 0 64 64" role="img" aria-label="Kanban favicon">
  <defs>
    <radialGradient id="favBadge" cx="50%" cy="34%" r="70%">
      <stop offset="0%" stop-color="#fffdf8" />
      <stop offset="100%" stop-color="#f5ede6" />
    </radialGradient>
  </defs>

  <rect x="5" y="5" width="54" height="54" rx="13" fill="url(#favBadge)" />
  <rect x="5" y="5" width="54" height="54" rx="13" fill="none" stroke="#d6c4bd" stroke-width="1.4" />
  <ellipse cx="32" cy="46" rx="15" ry="5.5" fill="#d4e3d3" />

  <circle cx="32" cy="24" r="11" fill="#efc3d3" />
  <circle cx="22" cy="27" r="8.5" fill="#f5d4df" />
  <circle cx="42" cy="27" r="8.5" fill="#f5d4df" />
  <circle cx="26" cy="19" r="7.5" fill="#f9dfe8" />
  <circle cx="38" cy="19" r="7.5" fill="#f9dfe8" />
  <circle cx="32" cy="31" r="9.5" fill="#f3d0dc" />

  <path d="M28.8 47 C28.7 41.2, 29.6 36.8, 31.3 33.2 C28.9 31.5, 27.5 28.6, 27.5 25.2 C29.8 26.5, 31.6 28, 33 29.9 C34.3 27.6, 36.3 26, 38.8 25 C38.7 28.4, 37.5 31.3, 35.5 33.4 C37 37, 37.7 41.5, 37.6 47 Z" fill="#d8b392" />
  <path d="M33 30.4 C34.8 34.2, 35.5 39.7, 35.1 47 L37.6 47 C37.7 41.5, 37 37, 35.5 33.4 Z" fill="#b78668" />

  <circle cx="18.5" cy="26" r="1.5" fill="#cb8ca3" />
  <circle cx="24" cy="16" r="1.3" fill="#cb8ca3" />
  <circle cx="31" cy="14.8" r="1.4" fill="#cb8ca3" />
  <circle cx="40.5" cy="17" r="1.5" fill="#cb8ca3" />
  <circle cx="45.5" cy="24.5" r="1.35" fill="#cb8ca3" />
  <circle cx="36.5" cy="30.5" r="1.2" fill="#cb8ca3" />

  <circle cx="31" cy="40.5" r="0.85" fill="#685246" />
  <circle cx="35" cy="40.5" r="0.85" fill="#685246" />
  <path d="M30.8 43 C31.8 44.1, 34.2 44.1, 35.2 43" fill="none" stroke="#685246" stroke-width="1.1" stroke-linecap="round" />
</svg>
